<svg width="217" height="55" viewBox="0 0 217 55" fill="none" xmlns="http://www.w3.org/2000/svg">
<g id="Group 2767">
<path id="Vector" d="M210.229 0H6.77135C3.03164 0 0 2.99858 0 6.69752V48.3025C0 52.0014 3.03164 55 6.77135 55H210.229C213.968 55 217 52.0014 217 48.3025V6.69752C217 2.99858 213.968 0 210.229 0Z" fill="#424243"/>
<path id="Vector_2" d="M25.8023 21.0423H19.1718C19.4634 19.6901 20.7039 18.7898 22.4465 18.7898C24.1115 18.7898 25.3003 19.5863 25.8023 21.0423ZM30 24.0133V23.5614C30 18.2601 26.9099 15 22.3947 15C20.4676 15 18.5921 15.7966 17.1634 17.2265C15.7642 18.6306 15 20.4606 15 22.4462C15 24.4579 15.7125 26.262 17.0859 27.7216C18.5405 29.259 20.283 30 22.4465 30C25.6177 30 27.9658 28.4885 29.3391 25.5212H24.7465C24.1115 26.0768 23.4248 26.3176 22.5794 26.3176C20.7555 26.3176 19.6739 25.5211 19.3047 24.0133H30Z" fill="white"/>
<path id="Vector_3" d="M41.0788 21.0423H34.8902C35.1623 19.6901 36.3201 18.7898 37.9466 18.7898C39.5005 18.7898 40.6101 19.5863 41.0788 21.0423ZM45 24.0133V23.5614C45 18.2601 42.1159 15 37.9017 15C36.1031 15 34.3527 15.7966 33.0192 17.2265C31.7132 18.6306 31 20.4606 31 22.4462C31 24.4579 31.665 26.262 32.9468 27.7216C34.3044 29.259 35.9308 30 37.95 30C40.9099 30 43.1014 28.4885 44.3832 25.5212H40.0932C39.5005 26.0768 38.8596 26.3176 38.0741 26.3176C36.3718 26.3176 35.3623 25.5211 35.0177 24.0133H45Z" fill="white"/>
<path id="Vector_4" d="M9.47088 19.0564V30H13.4015V19.0564H15V15.905H13.4015V15.5638C13.4015 14.2762 13.6815 13.8579 14.8972 13.8579H15V11.0257C14.7696 11.0257 14.5675 11 14.3656 11C11.0162 11 9.44607 12.3647 9.44607 15.384C9.44607 15.5419 9.47088 15.7252 9.47088 15.9086H8V19.0601H9.47088V19.0564Z" fill="white"/>
<path id="Vector_5" d="M46.6842 19.0564V30H51.174V19.0564H53V15.905H51.174V15.5639C51.174 14.2761 51.494 13.8579 52.8826 13.8579H52.9959V11.0257C52.7367 11.0257 52.5019 11 52.2712 11C48.4494 11 46.6519 12.3647 46.6519 15.3841C46.6519 15.5418 46.6803 15.7253 46.6803 15.9087H45V19.06H46.6842V19.0564Z" fill="white"/>
<path id="Vector_6" d="M63.1238 22.5112C63.1238 24.4483 61.7155 26.0143 59.9897 26.0143C58.2846 26.0143 56.8521 24.4483 56.8521 22.5112C56.8521 20.5481 58.2603 18.9819 59.9897 18.9819C61.7155 18.9783 63.1238 20.5481 63.1238 22.5112ZM67 22.4072C67 20.47 66.2337 18.5033 64.829 17.0707C63.4965 15.7163 61.8398 15 59.9137 15C58.1119 15 56.3586 15.7979 55.0228 17.2304C53.7146 18.6369 53 20.47 53 22.4592C53 24.4519 53.6662 26.2815 54.9502 27.7177C56.3102 29.2577 57.9394 30 59.962 30C61.9605 30 63.6416 29.2318 65.0015 27.7696C66.3338 26.3335 67 24.5559 67 22.4072Z" fill="white"/>
<path id="Vector_7" d="M73.7878 19.8281C71.715 19.716 70.0461 18.2316 69.9318 16.3804H78.1352H79V16.292C79 13.1162 76.7254 11 73.5782 11C70.2557 11 68 13.1705 68 15.9898C68 18.6528 70.3357 21 73.521 21C75.8337 21 77.6741 19.8553 78.6648 17.7357H77.7503C77.0912 18.9755 75.6776 19.8314 74.0354 19.8314C73.9477 19.8383 73.8716 19.8349 73.7878 19.8281Z" fill="#F7DC04"/>
<path id="Vector_8" d="M84.7385 19.8281C86.6227 19.716 88.1399 18.2316 88.2438 16.3804H80.7863H80V16.292C80 13.1162 82.0679 11 84.929 11C87.9494 11 90 13.1705 90 15.9898C90 18.6528 87.8767 21 84.9809 21C82.8784 21 81.2053 19.8553 80.3048 17.7357H81.1396C81.7388 18.9755 83.0238 19.8314 84.5168 19.8314C84.593 19.8383 84.6623 19.8349 84.7385 19.8281Z" fill="#F7DC04"/>
<path id="Vector_9" d="M11.8184 46.2281C12.8685 46.2281 13.7277 45.9648 14.3823 45.4381C15.0369 44.8976 15.3641 44.177 15.3641 43.2483C15.3641 42.4584 15.0504 41.8208 14.7095 41.4466C14.5459 41.2526 14.3004 41.0724 13.9731 40.9062C13.6594 40.726 13.3867 40.6012 13.1822 40.532L12.2957 40.2409C11.6002 40.033 11.1366 39.839 10.9047 39.6588C10.6865 39.4787 10.5774 39.2707 10.5774 39.0352C10.5774 38.6333 10.9456 38.3006 11.6002 38.3006C12.4321 38.3006 12.9094 38.6886 13.2503 39.4233L15.0914 38.3283C14.3958 36.9008 13.1685 36.1386 11.6002 36.1386C10.7275 36.1386 9.9774 36.4018 9.33644 36.9425C8.70914 37.4829 8.39547 38.1898 8.39547 39.0906C8.39547 39.9776 8.70914 40.6706 9.26826 41.128C9.85466 41.5714 10.4002 41.8208 11.2047 42.0426C11.9684 42.2505 12.4867 42.4446 12.7594 42.6108C13.0458 42.7632 13.1822 42.985 13.1822 43.2761C13.1822 43.8028 12.7458 44.0661 11.8866 44.0661C10.932 44.0661 10.2638 43.6225 9.88194 42.7217L8 43.8304C8.54548 45.3135 9.86829 46.2281 11.8184 46.2281ZM23.2547 43.4009C23.3094 43.1376 23.3367 42.8603 23.3367 42.5693C23.3367 41.5298 23.0093 40.6568 22.3411 39.9637C21.6865 39.2569 20.8683 38.9104 19.8728 38.9104C18.809 38.9104 17.9362 39.2569 17.2544 39.9637C16.5862 40.6568 16.2453 41.5298 16.2453 42.5693C16.2453 43.6225 16.5862 44.4957 17.2681 45.1887C17.9635 45.8817 18.8772 46.2281 20.0227 46.2281C21.3319 46.2281 22.3274 45.7569 22.9956 44.8006L21.3592 43.8443C21.0455 44.1908 20.6092 44.371 20.0501 44.371C19.1909 44.371 18.6454 44.0522 18.4135 43.4009H23.2547ZM18.3727 41.8486C18.5773 41.1141 19.0681 40.7538 19.8591 40.7538C20.6228 40.7538 21.1002 41.1141 21.3046 41.8486H18.3727ZM26.5424 39.1045H24.4968V46.0341H26.5424V42.9019C26.5424 42.2783 26.7607 41.8347 27.1834 41.5853C27.6198 41.322 28.0835 41.2389 28.588 41.322V38.9658C27.6607 38.9658 26.8015 39.4509 26.5424 40.3379V39.1045ZM32.4762 43.4979L31.0579 39.1045H28.7942L31.3171 46.0341H33.6354L36.1583 39.1045H33.8945L32.4762 43.4979ZM38.7909 38.1343C39.2817 37.6353 39.2817 36.8593 38.7909 36.3742C38.3136 35.8753 37.5499 35.8753 37.0589 36.3742C36.5816 36.8593 36.5816 37.6353 37.0589 38.1343C37.5499 38.6194 38.3136 38.6194 38.7909 38.1343ZM38.9545 46.0341V39.1045H36.9089V46.0341H38.9545ZM43.7243 46.2281C45.0471 46.2281 46.2064 45.5351 46.8063 44.4403L45.0198 43.4009C44.7881 43.9136 44.3381 44.177 43.6971 44.177C42.8106 44.177 42.156 43.5118 42.156 42.5693C42.156 41.6268 42.8106 40.9615 43.6971 40.9615C44.3381 40.9615 44.7744 41.225 45.0198 41.7377L46.8063 40.6844C46.2064 39.6173 45.0335 38.9104 43.7243 38.9104C42.6879 38.9104 41.8288 39.2569 41.1333 39.9637C40.4514 40.6706 40.1105 41.5298 40.1105 42.5693C40.1105 43.6088 40.4514 44.4681 41.1333 45.1748C41.8288 45.8817 42.6879 46.2281 43.7243 46.2281ZM54.1651 43.4009C54.2196 43.1376 54.2469 42.8603 54.2469 42.5693C54.2469 41.5298 53.9196 40.6568 53.2514 39.9637C52.5969 39.2569 51.7785 38.9104 50.783 38.9104C49.7193 38.9104 48.8466 39.2569 48.1647 39.9637C47.4964 40.6568 47.1555 41.5298 47.1555 42.5693C47.1555 43.6225 47.4964 44.4957 48.1783 45.1887C48.8738 45.8817 49.7876 46.2281 50.933 46.2281C52.2422 46.2281 53.2378 45.7569 53.9059 44.8006L52.2695 43.8443C51.9558 44.1908 51.5194 44.371 50.9603 44.371C50.1011 44.371 49.5557 44.0522 49.3239 43.4009H54.1651ZM49.2829 41.8486C49.4875 41.1141 49.9785 40.7538 50.7694 40.7538C51.5331 40.7538 52.0104 41.1141 52.215 41.8486H49.2829ZM66.2488 46.0341L64.2168 42.4723C65.2669 41.9178 65.976 40.8369 65.976 39.6588C65.976 38.7303 65.6623 37.9541 65.0214 37.3028C64.3804 36.6514 63.6167 36.3326 62.7031 36.3326H58.8846V46.0341H61.0667V42.8465H62.1031L63.9031 46.0341H66.2488ZM62.7031 38.4115C63.3032 38.4115 63.794 38.9521 63.794 39.6588C63.794 40.3657 63.3032 40.9062 62.7031 40.9062H61.0667V38.4115H62.7031ZM71.8107 39.7558C71.3333 39.1876 70.6514 38.9104 69.7787 38.9104C68.8786 38.9104 68.115 39.2707 67.4739 39.9776C66.833 40.6844 66.5194 41.5437 66.5194 42.5693C66.5194 43.5949 66.833 44.4681 67.4739 45.1748C68.115 45.8817 68.8786 46.2281 69.7787 46.2281C70.6514 46.2281 71.3333 45.951 71.8107 45.3827V46.0341H73.8562V39.1045H71.8107V39.7558ZM69.015 43.8028C68.715 43.4979 68.565 43.0821 68.565 42.5693C68.565 42.0565 68.715 41.6407 69.015 41.3357C69.3151 41.0309 69.7104 40.8784 70.1878 40.8784C70.6651 40.8784 71.0606 41.0309 71.3606 41.3357C71.6607 41.6407 71.8107 42.0565 71.8107 42.5693C71.8107 43.0821 71.6607 43.4979 71.3606 43.8028C71.0606 44.1076 70.6651 44.2602 70.1878 44.2602C69.7104 44.2602 69.3151 44.1076 69.015 43.8028ZM79.3527 39.1045H77.9481V37.1641L75.9025 37.7879V39.1045H74.8116V41.1002H75.9025V43.5533C75.9025 44.5649 76.1479 45.2579 76.6525 45.6599C77.157 46.048 78.0572 46.1727 79.3527 46.0341V44.1493C78.3572 44.2046 77.9481 44.1076 77.9481 43.5533V41.1002H79.3527V39.1045ZM82.3928 38.1343C82.8838 37.6353 82.8838 36.8593 82.3928 36.3742C81.9155 35.8753 81.1519 35.8753 80.6609 36.3742C80.1836 36.8593 80.1836 37.6353 80.6609 38.1343C81.1519 38.6194 81.9155 38.6194 82.3928 38.1343ZM82.5566 46.0341V39.1045H80.511V46.0341H82.5566ZM88.0491 38.9104C87.1627 38.9104 86.5081 39.1876 86.099 39.7558V39.1045H84.0534V46.0341H86.099V42.2505C86.099 41.3081 86.59 40.823 87.3673 40.823C88.0628 40.823 88.5537 41.2665 88.5537 42.0843V46.0341H90.5993V41.7793C90.5993 40.8784 90.3539 40.1855 89.8629 39.6727C89.3856 39.1598 88.772 38.9104 88.0491 38.9104ZM97.0089 39.8113C96.5316 39.2154 95.877 38.9104 95.018 38.9104C94.0633 38.9104 93.2586 39.2569 92.6177 39.9499C91.9768 40.629 91.6631 41.4605 91.6631 42.4307C91.6631 43.4009 91.9768 44.2324 92.6177 44.9254C93.2586 45.6045 94.0633 45.9509 95.018 45.9509C95.877 45.9509 96.5316 45.646 97.0089 45.05V45.6877C97.0089 46.644 96.4361 47.1705 95.468 47.1705C94.7451 47.1705 94.2269 46.8795 93.9132 46.2974L92.1677 47.3229C92.7813 48.4457 93.8587 49 95.3997 49C96.3953 49 97.2545 48.7228 97.9499 48.1546C98.6455 47.6003 99 46.7825 99 45.6877V39.1045H97.0089V39.8113ZM94.1724 43.5949C93.8587 43.3039 93.7088 42.9158 93.7088 42.4307C93.7088 41.9456 93.8587 41.5575 94.1724 41.2665C94.486 40.9754 94.8815 40.823 95.3588 40.823C95.8362 40.823 96.2317 40.9754 96.5452 41.2665C96.859 41.5575 97.0089 41.9456 97.0089 42.4307C97.0089 42.9158 96.859 43.3039 96.5452 43.5949C96.2317 43.886 95.8362 44.0384 95.3588 44.0384C94.8815 44.0384 94.486 43.886 94.1724 43.5949Z" fill="white"/>
<path id="Vector_10" d="M153.866 40.0744L155.816 37.1612H154.219L151.512 41.2893C151.171 41.7975 151 42.3802 151 43.0372C151 43.9174 151.28 44.624 151.841 45.1818C152.402 45.7273 153.134 46 154.024 46C154.914 46 155.634 45.7273 156.194 45.1818C156.755 44.624 157.036 43.9174 157.036 43.0372C157.036 42.157 156.755 41.4504 156.194 40.905C155.634 40.3471 154.914 40.0744 154.024 40.0744H153.866ZM154.024 44.6488C153.061 44.6488 152.402 44.0165 152.402 43.0372C152.402 42.0579 153.061 41.4256 154.024 41.4256C154.963 41.4256 155.634 42.0579 155.634 43.0372C155.634 44.0165 154.963 44.6488 154.024 44.6488ZM156.784 38.5248H160.686L157.735 45.8388H159.21L162.21 38.4008V37.1612H156.784V38.5248ZM172.884 45.8388L170.945 42.4669C171.957 42.0579 172.64 41.0537 172.64 39.9504C172.64 39.1694 172.371 38.5124 171.835 37.9793C171.311 37.4339 170.664 37.1612 169.896 37.1612H166.482V45.8388H167.884V42.6777H169.542L171.347 45.8388H172.884ZM169.896 38.5C170.64 38.5 171.237 39.1446 171.237 39.9504C171.237 40.7562 170.64 41.4008 169.896 41.4008H167.884V38.5H169.896ZM179.442 43.3099C179.479 43.0744 179.491 42.8884 179.491 42.7521C179.491 41.8471 179.198 41.0661 178.625 40.4339C178.052 39.8017 177.321 39.4793 176.431 39.4793C175.492 39.4793 174.711 39.7893 174.114 40.4215C173.516 41.0413 173.211 41.8099 173.211 42.7397C173.211 43.6818 173.516 44.4628 174.126 45.0826C174.736 45.6901 175.54 46 176.528 46C177.711 46 178.601 45.5537 179.198 44.6488L178.113 44.0041C177.76 44.5124 177.235 44.7727 176.54 44.7727C175.528 44.7727 174.784 44.2521 174.589 43.3099H179.442ZM174.577 42.219C174.76 41.2769 175.443 40.6942 176.418 40.6942C177.284 40.6942 177.979 41.2149 178.162 42.219H174.577ZM182.85 44.3512L181.143 39.6405H179.704L182.082 45.8388H183.606L185.984 39.6405H184.545L182.85 44.3512ZM188.062 38.4628C188.403 38.1157 188.403 37.595 188.074 37.2603C187.745 36.9132 187.208 36.9132 186.879 37.2603C186.55 37.595 186.55 38.1157 186.879 38.4628C187.221 38.7975 187.733 38.7975 188.062 38.4628ZM188.135 45.8388V39.6405H186.818V45.8388H188.135ZM195.553 43.3099C195.589 43.0744 195.602 42.8884 195.602 42.7521C195.602 41.8471 195.309 41.0661 194.736 40.4339C194.163 39.8017 193.431 39.4793 192.541 39.4793C191.602 39.4793 190.822 39.7893 190.224 40.4215C189.627 41.0413 189.322 41.8099 189.322 42.7397C189.322 43.6818 189.627 44.4628 190.236 45.0826C190.846 45.6901 191.651 46 192.639 46C193.821 46 194.712 45.5537 195.309 44.6488L194.224 44.0041C193.87 44.5124 193.346 44.7727 192.651 44.7727C191.639 44.7727 190.895 44.2521 190.7 43.3099H195.553ZM190.688 42.219C190.871 41.2769 191.553 40.6942 192.529 40.6942C193.395 40.6942 194.09 41.2149 194.273 42.219H190.688ZM202.352 43.9174L201.083 39.6405H199.827L198.547 43.9174L197.364 39.6405H195.974L197.889 45.8388H199.181L200.461 41.6612L201.73 45.8388H203.022L204.937 39.6405H203.546L202.352 43.9174ZM206.72 41.3512C206.72 40.9174 207.11 40.6942 207.61 40.6942C208.158 40.6942 208.549 40.9298 208.756 41.4008L209.866 40.7686C209.439 39.9628 208.622 39.4793 207.61 39.4793C206.976 39.4793 206.439 39.6529 206.012 40C205.586 40.3471 205.378 40.8058 205.378 41.376C205.354 42.6777 206.585 43.0496 207.5 43.2851C208.146 43.4463 208.658 43.6818 208.658 44.0785C208.658 44.5372 208.317 44.7727 207.622 44.7727C206.927 44.7727 206.476 44.4752 206.268 43.8802L205.134 44.5496C205.525 45.4545 206.415 46 207.622 46C208.305 46 208.866 45.8264 209.317 45.4917C209.768 45.157 210 44.686 210 44.0909C210.024 42.7645 208.805 42.3678 207.866 42.157C207.232 41.9711 206.72 41.7603 206.72 41.3512Z" fill="white"/>
<path id="Vector_11" d="M143.691 14.1267L145.558 19.4473C145.583 19.5278 145.662 19.5761 145.758 19.5761H151.791C151.991 19.5761 152.078 19.8095 151.914 19.9222L147.034 23.2063C146.964 23.2545 146.93 23.3431 146.955 23.4236L148.822 28.7441C148.883 28.9212 148.666 29.066 148.502 28.9614L143.622 25.6774C143.552 25.629 143.448 25.629 143.379 25.6774L138.5 28.9614C138.334 29.0742 138.117 28.9212 138.178 28.7441L140.045 23.4236C140.071 23.3431 140.045 23.2545 139.966 23.2063L135.087 19.9222C134.922 19.8095 135.009 19.5761 135.208 19.5761H141.242C141.329 19.5761 141.408 19.5197 141.442 19.4473L143.309 14.1267C143.361 13.9578 143.631 13.9578 143.691 14.1267Z" fill="#FFDB02"/>
<path id="Vector_12" d="M163.18 14.1267L164.937 19.4473C164.962 19.5278 165.035 19.5761 165.125 19.5761H170.805C170.992 19.5761 171.073 19.8095 170.918 19.9222L166.326 23.2063C166.261 23.2545 166.228 23.3431 166.253 23.4236L168.009 28.7441C168.067 28.9212 167.862 29.066 167.707 28.9614L163.115 25.6774C163.049 25.629 162.951 25.629 162.886 25.6774L158.293 28.9614C158.139 29.0742 157.933 28.9212 157.99 28.7441L159.747 23.4236C159.773 23.3431 159.747 23.2545 159.675 23.2063L155.082 19.9222C154.926 19.8095 155.008 19.5761 155.196 19.5761H160.876C160.957 19.5761 161.031 19.5197 161.064 19.4473L162.82 14.1267C162.87 13.9578 163.123 13.9578 163.18 14.1267Z" fill="#FFDB02"/>
<path id="Vector_13" d="M182.69 14.1267L184.557 19.4473C184.584 19.5278 184.661 19.5761 184.757 19.5761H190.792C190.991 19.5761 191.079 19.8095 190.913 19.9222L186.033 23.2063C185.964 23.2545 185.929 23.3431 185.956 23.4236L187.823 28.7441C187.883 28.9212 187.665 29.066 187.501 28.9614L182.622 25.6774C182.553 25.629 182.449 25.629 182.378 25.6774L177.499 28.9614C177.335 29.0742 177.117 28.9212 177.179 28.7441L179.044 23.4236C179.071 23.3431 179.044 23.2545 178.967 23.2063L174.087 19.9222C173.921 19.8095 174.009 19.5761 174.208 19.5761H180.243C180.33 19.5761 180.408 19.5197 180.443 19.4473L182.31 14.1267C182.362 13.9578 182.63 13.9578 182.69 14.1267Z" fill="#FFDB02"/>
<path id="Vector_14" d="M202.18 14.1267L203.937 19.4473C203.961 19.5278 204.035 19.5761 204.125 19.5761H209.804C209.992 19.5761 210.074 19.8095 209.919 19.9222L205.326 23.2063C205.26 23.2545 205.227 23.3431 205.252 23.4236L207.009 28.744C207.066 28.9212 206.862 29.066 206.706 28.9614L202.114 25.6774C202.049 25.629 201.951 25.629 201.885 25.6774L197.293 28.9614C197.138 29.0742 196.934 28.9212 196.991 28.744L198.748 23.4236C198.772 23.3431 198.748 23.2545 198.674 23.2063L194.082 19.9222C193.927 19.8095 194.008 19.5761 194.195 19.5761H199.875C199.957 19.5761 200.03 19.5197 200.063 19.4473L201.82 14.1267C201.869 13.9578 202.122 13.9578 202.18 14.1267Z" stroke="#FFDB02" stroke-width="0.208029" stroke-miterlimit="10"/>
<path id="Vector_15" d="M204.26 19.4491L202.487 14.1327C202.427 13.9558 202.171 13.9558 202.11 14.1327L200.338 19.4491C200.311 19.5294 200.235 19.5777 200.149 19.5777L194.24 19.5455C194.121 19.5455 194 19.5616 194 19.6582V19.7466C194 19.803 194.189 19.9799 194.24 20.0202L198.933 23.2051C199.001 23.2533 199.028 23.3418 199.001 23.4142L197.1 28.6581C197.041 28.8351 197.211 29.0845 197.366 28.9718L202.179 25.6581C202.247 25.6098 202.341 25.6098 202.409 25.6581L207 28.7707V27.4517L205.57 23.3257L207 22.2962V19.5859L204.439 19.5698C204.363 19.5777 204.285 19.5215 204.26 19.4491Z" fill="#FFDB02"/>
<path id="Vector_16" d="M124.18 14.1257L125.937 19.4437C125.961 19.5241 126.035 19.5724 126.125 19.5724H131.804C131.992 19.5724 132.074 19.8137 131.918 19.9184L127.326 23.209C127.261 23.2573 127.228 23.3458 127.252 23.4262L129.009 28.7442C129.066 28.9212 128.862 29.0661 128.707 28.9614L124.114 25.6709C124.049 25.6225 123.951 25.6225 123.886 25.6709L119.293 28.9614C119.138 29.0741 118.934 28.9212 118.991 28.7442L120.748 23.4262C120.772 23.3458 120.748 23.2573 120.674 23.209L116.082 19.9265C115.926 19.8137 116.008 19.5805 116.196 19.5805H121.875C121.957 19.5805 122.031 19.5241 122.063 19.4517L123.82 14.1338C123.869 13.9568 124.123 13.9568 124.18 14.1257Z" fill="#FFDB02"/>
</g>
</svg>
