<svg width="39" height="39" viewBox="0 0 39 39" fill="none" xmlns="http://www.w3.org/2000/svg">
<path fill-rule="evenodd" clip-rule="evenodd" d="M12.181 4.875H26.8206C30.8539 4.875 34.125 8.1445 34.125 12.181V26.8206C34.125 30.8539 30.8555 34.125 26.819 34.125H12.181C8.14612 34.125 4.875 30.8555 4.875 26.819V12.181C4.875 8.14612 8.1445 4.875 12.181 4.875V4.875Z" stroke="#B5B5B5" stroke-width="1.5" stroke-linecap="round" stroke-linejoin="round"/>
<path d="M27.5421 10.9086C27.2399 10.9102 26.9945 11.1556 26.9945 11.4578C26.9945 11.7601 27.2415 12.0055 27.5437 12.0055C27.846 12.0055 28.0914 11.7601 28.0914 11.4578C28.093 11.154 27.846 10.9086 27.5421 10.9086" stroke="#B5B5B5" stroke-width="1.5" stroke-linecap="round" stroke-linejoin="round"/>
<path d="M23.6366 15.3638C25.9212 17.6484 25.9212 21.3524 23.6366 23.637C21.352 25.9215 17.648 25.9215 15.3635 23.637C13.0789 21.3524 13.0789 17.6484 15.3635 15.3638C17.648 13.0792 21.352 13.0792 23.6366 15.3638" stroke="#B5B5B5" stroke-width="1.5" stroke-linecap="round" stroke-linejoin="round"/>
</svg>
