<svg width="39" height="39" viewBox="0 0 39 39" fill="none" xmlns="http://www.w3.org/2000/svg">
<path fill-rule="evenodd" clip-rule="evenodd" d="M12.1875 4.875H26.819C30.8539 4.875 34.125 8.14612 34.125 12.181V26.8206C34.125 30.8539 30.8539 34.125 26.819 34.125H12.181C8.14612 34.125 4.875 30.8539 4.875 26.819V12.1875C4.875 8.14938 8.14938 4.875 12.1875 4.875V4.875Z" stroke="#B5B5B5" stroke-width="1.5" stroke-linecap="round" stroke-linejoin="round"/>
<path d="M13.195 18.0371V26.8121" stroke="#B5B5B5" stroke-width="1.5" stroke-linecap="round" stroke-linejoin="round"/>
<path d="M19.0434 26.8121V21.6934C19.0434 19.6735 20.6797 18.0371 22.6996 18.0371V18.0371C24.7195 18.0371 26.3559 19.6735 26.3559 21.6934V26.8121" stroke="#B5B5B5" stroke-width="1.5" stroke-linecap="round" stroke-linejoin="round"/>
<path d="M13.1917 12.7359C12.9902 12.7359 12.8261 12.9001 12.8277 13.1016C12.8277 13.3031 12.9919 13.4672 13.1934 13.4672C13.3949 13.4672 13.559 13.3031 13.559 13.1016C13.559 12.8984 13.3949 12.7359 13.1917 12.7359" stroke="#B5B5B5" stroke-width="1.5" stroke-linecap="round" stroke-linejoin="round"/>
</svg>
