<svg width="39" height="39" viewBox="0 0 39 39" fill="none" xmlns="http://www.w3.org/2000/svg">
<path fill-rule="evenodd" clip-rule="evenodd" d="M12.1875 4.875H26.819C30.8539 4.875 34.125 8.14612 34.125 12.181V26.8206C34.125 30.8539 30.8539 34.125 26.819 34.125H12.181C8.14612 34.125 4.875 30.8539 4.875 26.819V12.1875C4.875 8.14938 8.14938 4.875 12.1875 4.875V4.875Z" stroke="#B5B5B5" stroke-width="1.5" stroke-linecap="round" stroke-linejoin="round"/>
<path d="M28.4562 17.1445C28.4562 16.7303 28.1205 16.3945 27.7062 16.3945C27.292 16.3945 26.9562 16.7303 26.9562 17.1445H28.4562ZM10.7618 24.5021C10.5175 24.1676 10.0483 24.0946 9.7138 24.3389C9.37934 24.5833 9.3063 25.0525 9.55066 25.387L10.7618 24.5021ZM10.0393 24.2037C9.63013 24.2683 9.35083 24.6524 9.41543 25.0615C9.48003 25.4706 9.86408 25.75 10.2732 25.6854L10.0393 24.2037ZM13.0812 23.9695L13.3196 24.6806C13.5652 24.5983 13.7509 24.3952 13.8109 24.1432C13.8708 23.8913 13.7966 23.6262 13.6145 23.4421L13.0812 23.9695ZM12.1063 12.2695L12.7669 11.9144C12.6443 11.6864 12.4127 11.5377 12.1543 11.5211C11.8959 11.5045 11.6472 11.6224 11.4965 11.8329L12.1063 12.2695ZM17.9563 17.1445L17.779 17.8733C17.9984 17.9266 18.2301 17.8783 18.4099 17.7418C18.5897 17.6052 18.6984 17.3949 18.7058 17.1692L17.9563 17.1445ZM26.7312 14.2195L26.1053 14.6326C26.2441 14.843 26.4792 14.9695 26.7312 14.9695V14.2195ZM29.6562 14.2195L30.2803 14.6356C30.4337 14.4054 30.448 14.1095 30.3175 13.8656C30.187 13.6218 29.9328 13.4695 29.6562 13.4695V14.2195ZM27.0822 16.7285C26.8524 17.0732 26.9456 17.5388 27.2902 17.7686C27.6349 17.9983 28.1005 17.9052 28.3303 17.5606L27.0822 16.7285ZM26.9562 17.1445C26.9562 20.419 26.0213 23.153 24.3407 25.0577C22.6704 26.9507 20.203 28.0945 16.9812 28.0945V29.5945C20.5844 29.5945 23.4796 28.3008 25.4655 26.0501C27.4412 23.811 28.4562 20.6951 28.4562 17.1445H26.9562ZM16.9812 28.0945C15.1759 28.0945 13.9636 27.6277 13.0501 26.9813C12.1137 26.3186 11.4463 25.439 10.7618 24.5021L9.55066 25.387C10.2279 26.314 11.023 27.3843 12.1837 28.2057C13.3672 29.0433 14.8866 29.5945 16.9812 29.5945V28.0945ZM10.2732 25.6854C10.2997 25.6812 10.3201 25.6765 10.3269 25.6749C10.3364 25.6727 10.3441 25.6707 10.3487 25.6695C10.3578 25.6671 10.3652 25.6649 10.3691 25.6638C10.3772 25.6614 10.3847 25.6592 10.3895 25.6577C10.3998 25.6545 10.4119 25.6506 10.4241 25.6467C10.4492 25.6386 10.4836 25.6273 10.5251 25.6137C10.6084 25.5863 10.7249 25.5477 10.8629 25.5018C11.1392 25.41 11.5043 25.2881 11.8681 25.1665C12.232 25.0449 12.5948 24.9234 12.8667 24.8324C13.0027 24.7868 13.1159 24.7489 13.1951 24.7224C13.2347 24.7091 13.2658 24.6987 13.2871 24.6916C13.2977 24.688 13.3058 24.6853 13.3113 24.6834C13.314 24.6825 13.3161 24.6818 13.3175 24.6813C13.3182 24.6811 13.3187 24.6809 13.3191 24.6808C13.3193 24.6808 13.3194 24.6807 13.3195 24.6807C13.3195 24.6807 13.3196 24.6807 13.3196 24.6807C13.3196 24.6806 13.3196 24.6806 13.0812 23.9695C12.8429 23.2584 12.8429 23.2584 12.8428 23.2584C12.8428 23.2584 12.8428 23.2584 12.8428 23.2585C12.8427 23.2585 12.8425 23.2585 12.8424 23.2586C12.842 23.2587 12.8415 23.2589 12.8408 23.2591C12.8394 23.2596 12.8373 23.2603 12.8346 23.2612C12.8291 23.263 12.821 23.2658 12.8104 23.2693C12.7892 23.2764 12.7581 23.2868 12.7186 23.3001C12.6394 23.3266 12.5263 23.3645 12.3904 23.41C12.1187 23.501 11.7561 23.6224 11.3926 23.7439C11.029 23.8654 10.6648 23.987 10.3897 24.0784C10.2521 24.1242 10.1374 24.1622 10.0565 24.1888C10.0159 24.2021 9.98493 24.2122 9.96427 24.2189C9.95362 24.2223 9.94769 24.2242 9.94525 24.2249C9.94367 24.2254 9.94603 24.2247 9.95048 24.2234C9.95245 24.2228 9.95836 24.2211 9.96633 24.219C9.9703 24.218 9.97746 24.2161 9.98654 24.214C9.99298 24.2125 10.0131 24.2078 10.0393 24.2037L10.2732 25.6854ZM13.6145 23.4421C10.6201 20.4149 10.3959 15.9463 12.716 12.7062L11.4965 11.8329C8.75956 15.6551 9.02936 20.9397 12.548 24.497L13.6145 23.4421ZM11.4456 12.6246C12.7181 14.9919 15.11 17.224 17.779 17.8733L18.1335 16.4158C15.9795 15.8918 13.8929 14.0094 12.7669 11.9144L11.4456 12.6246ZM18.7058 17.1692C18.7468 15.9253 19.1861 14.8925 19.8877 14.1756C20.5854 13.4627 21.5832 13.0195 22.8313 13.0195V11.5195C21.2079 11.5195 19.8146 12.1058 18.8157 13.1264C17.8208 14.143 17.2584 15.5476 17.2067 17.1199L18.7058 17.1692ZM22.8313 13.0195C23.7117 13.0195 24.3615 13.1869 24.8632 13.4546C25.3632 13.7216 25.7623 14.113 26.1053 14.6326L27.3572 13.8064C26.9055 13.122 26.3321 12.5384 25.5695 12.1313C24.8085 11.7251 23.9057 11.5195 22.8313 11.5195V13.0195ZM26.7312 14.9695H29.6562V13.4695H26.7312V14.9695ZM29.0322 13.8035L27.0822 16.7285L28.3303 17.5606L30.2803 14.6356L29.0322 13.8035Z" fill="#B5B5B5"/>
</svg>
